<svg xmlns="http://www.w3.org/2000/svg" width="37.968" height="164.897" viewBox="0 0 37.968 164.897"><g transform="translate(9.801 127.662)"><path d="M36.618,7.968,29.276.536a1.9,1.9,0,0,0-2.685.042,1.94,1.94,0,0,0,0,2.676l4.07,4.119H1.888A1.929,1.929,0,0,0,0,9.327a1.892,1.892,0,0,0,1.888,1.911H30.66l-4.07,4.119a1.952,1.952,0,0,0,.042,2.718,1.884,1.884,0,0,0,2.643,0l7.343-7.432a1.9,1.9,0,0,0,.126-2.676C36.7,7.968,36.7,7.926,36.618,7.968Z" transform="translate(18.617 0) rotate(90)"/></g><path d="M18.984,56.953C8.5,56.953,0,48.135,0,37.321V19.576C0,8.762,8.5,0,18.984,0S37.968,8.762,37.968,19.576V37.321C37.968,48.135,29.471,56.953,18.984,56.953Zm0-52.239A14.644,14.644,0,0,0,4.571,19.576V37.321A14.644,14.644,0,0,0,18.984,52.183,14.644,14.644,0,0,0,33.4,37.321V19.576A14.644,14.644,0,0,0,18.984,4.714Z"/><path d="M15.061,20.984A3.019,3.019,0,0,1,11.9,18.193V11.118a3.016,3.016,0,0,1,3.164-2.791,2.973,2.973,0,0,1,3.164,2.791v7.074A2.973,2.973,0,0,1,15.061,20.984Z" transform="translate(3.924 2.747)"/></svg>